<svg width="53" height="64" viewBox="0 0 53 64" fill="none" xmlns="http://www.w3.org/2000/svg">
<path d="M28.5 28C28.5 26.6193 27.3807 25.5 26 25.5C24.6193 25.5 23.5 26.6193 23.5 28L28.5 28ZM24.2322 62.7678C25.2085 63.7441 26.7915 63.7441 27.7678 62.7678L43.6777 46.8579C44.654 45.8816 44.654 44.2986 43.6777 43.3223C42.7014 42.346 41.1184 42.346 40.1421 43.3223L26 57.4645L11.8579 43.3223C10.8816 42.346 9.29864 42.346 8.32233 43.3223C7.34602 44.2986 7.34602 45.8816 8.32233 46.8579L24.2322 62.7678ZM23.5 28L23.5 61H28.5L28.5 28L23.5 28Z" fill="#1A265A"/>
<path d="M17.2 19L17.18 5H15.04L9.58 14.28L4.02 5H1.88V19H4.36V9.84L8.96 17.4H10.12L14.72 9.72L14.74 19H17.2ZM25.5416 19.14C28.8616 19.14 31.2416 16.86 31.2416 13.66C31.2416 10.46 28.8616 8.2 25.5416 8.2C22.2616 8.2 19.8616 10.46 19.8616 13.66C19.8616 16.86 22.2616 19.14 25.5416 19.14ZM25.5416 17C23.7416 17 22.3816 15.7 22.3816 13.66C22.3816 11.62 23.7416 10.32 25.5416 10.32C27.3616 10.32 28.7216 11.62 28.7216 13.66C28.7216 15.7 27.3616 17 25.5416 17ZM36.0122 9.88V8.32H33.6322V19H36.1322V13.82C36.1322 11.64 37.3322 10.52 39.2322 10.52C39.4122 10.52 39.5922 10.54 39.8122 10.58V8.2C38.0322 8.2 36.7322 8.76 36.0122 9.88ZM51.8753 13.72C51.8753 10.38 49.5953 8.2 46.4753 8.2C43.2953 8.2 40.9553 10.48 40.9553 13.66C40.9553 16.84 43.2753 19.14 46.8553 19.14C48.6953 19.14 50.1953 18.54 51.1553 17.4L49.8153 15.86C49.0553 16.64 48.1153 17.02 46.9153 17.02C45.0553 17.02 43.7553 16.02 43.4553 14.46H51.8353C51.8553 14.22 51.8753 13.92 51.8753 13.72ZM46.4753 10.2C48.1153 10.2 49.2953 11.26 49.4953 12.8H43.4353C43.6753 11.24 44.8553 10.2 46.4753 10.2Z" fill="#1A265A"/>
</svg>
