<svg width="40" height="40" viewBox="0 0 40 40" fill="none" xmlns="http://www.w3.org/2000/svg">
<path d="M19.9989 1.80246C12.1173 1.80246 5.12853 6.87854 2.69505 14.3765C0.257648 21.8745 2.92634 30.0889 9.30455 34.722C15.6818 39.357 24.318 39.357 30.6962 34.722C37.0744 30.0889 39.7422 21.8745 37.3067 14.3765C34.8693 6.87854 27.8835 1.80246 19.9989 1.80246ZM39.0208 13.8188C41.6974 22.0597 38.7631 31.0877 31.7547 36.1795C24.7463 41.2732 15.2545 41.2732 8.24511 36.1795C1.23476 31.0877 -1.69756 22.0597 0.98093 13.8188C3.65746 5.57889 11.3352 0 19.9989 0C28.6626 0 36.3423 5.57889 39.0208 13.8188Z" fill="white"/>
<path fill-rule="evenodd" clip-rule="evenodd" d="M22.3062 13.9554C22.8501 13.9368 23.3921 13.9505 23.938 13.9505H24.2134V11.1277C23.9223 11.1003 23.6185 11.0571 23.3137 11.0424C22.7541 11.0179 22.1945 10.9905 21.6349 11.0032C20.7812 11.0219 19.9727 11.2277 19.267 11.7315C18.4575 12.3117 18.0145 13.1262 17.846 14.0867C17.7744 14.4827 17.7578 14.8953 17.746 15.2972C17.7313 15.9313 17.744 16.5625 17.744 17.1967V17.478H14.9999V20.6144H17.744V28.5534H20.9782V20.6144H23.6596C23.7969 19.5627 23.9301 18.5228 24.0703 17.4407C23.8547 17.4407 23.6626 17.4387 23.4695 17.4407C22.7051 17.4436 20.9547 17.4407 20.9547 17.4407C20.9547 17.4407 20.9635 15.8754 20.9812 15.1962C21.0076 14.2651 21.5594 13.9809 22.3052 13.9554H22.3062Z" fill="white"/>
</svg>
