<svg width="40" height="40" viewBox="0 0 40 40" fill="none" xmlns="http://www.w3.org/2000/svg">
<path d="M19.9989 1.80246C12.1173 1.80246 5.12853 6.87854 2.69505 14.3765C0.257648 21.8745 2.92634 30.0889 9.30455 34.722C15.6818 39.357 24.318 39.357 30.6962 34.722C37.0744 30.0889 39.7422 21.8745 37.3067 14.3765C34.8693 6.87854 27.8835 1.80246 19.9989 1.80246ZM39.0208 13.8188C41.6974 22.0597 38.7631 31.0877 31.7547 36.1795C24.7463 41.2732 15.2545 41.2732 8.24511 36.1795C1.23476 31.0877 -1.69756 22.0597 0.98093 13.8188C3.65746 5.57889 11.3352 0 19.9989 0C28.6626 0 36.3423 5.57889 39.0208 13.8188Z" fill="white"/>
<g clip-path="url(#clip0_22_172)">
<path d="M25.2 14.3373C24.5568 14.3373 24.0351 14.8067 24.0351 15.3881C24.0351 15.9694 24.5568 16.4365 25.2 16.4365C25.8433 16.4365 26.3649 15.967 26.3649 15.3881C26.3649 14.8092 25.8433 14.3373 25.2 14.3373Z" fill="white"/>
<path d="M20.0189 22.9116C18.2892 22.9116 16.8838 21.6467 16.8838 20.0899C16.8838 18.5332 18.2919 17.2659 20.0189 17.2659C21.746 17.2659 23.1541 18.5332 23.1541 20.0899C23.1541 21.6467 21.746 22.9116 20.0189 22.9116ZM20.0189 15.6824C17.3189 15.6824 15.1243 17.6599 15.1243 20.0899C15.1243 22.5199 17.3216 24.4951 20.0189 24.4951C22.7162 24.4951 24.9135 22.5199 24.9135 20.0899C24.9135 17.6599 22.7162 15.6824 20.0189 15.6824Z" fill="white"/>
<path d="M16.0135 12.7027C13.7405 12.7027 11.8919 14.3665 11.8919 16.4097V23.6049C11.8919 25.6432 13.7297 27.2973 15.9946 27.2973H24.0054C26.2703 27.2973 28.1081 25.6432 28.1081 23.6049V16.3927C28.1081 14.3543 26.273 12.7027 24.0081 12.7027H16.0135ZM23.9919 29H15.973C12.6757 29 10 26.5943 10 23.6243V16.3757C10 13.4057 12.673 11 15.973 11H24.0297C27.327 11 30.0027 13.4057 30.0027 16.3757V23.5927C30.0027 26.5749 27.3081 29 23.9946 29H23.9919Z" fill="white"/>
</g>
<defs>
<clipPath id="clip0_22_172">
<rect width="20" height="18" fill="white" transform="translate(10 11)"/>
</clipPath>
</defs>
</svg>
